<svg width="16" height="17" viewBox="0 0 16 17" fill="none" xmlns="http://www.w3.org/2000/svg">
<path d="M8.00016 15.4651C4.04683 15.4651 0.833496 12.2518 0.833496 8.29844C0.833496 4.34511 4.04683 1.13177 8.00016 1.13177C11.9535 1.13177 15.1668 4.34511 15.1668 8.29844C15.1668 12.2518 11.9535 15.4651 8.00016 15.4651ZM8.00016 2.13177C4.60016 2.13177 1.8335 4.89844 1.8335 8.29844C1.8335 11.6984 4.60016 14.4651 8.00016 14.4651C11.4002 14.4651 14.1668 11.6984 14.1668 8.29844C14.1668 4.89844 11.4002 2.13177 8.00016 2.13177Z" fill="#292D32"/>
<path d="M10.4736 10.9184C10.3869 10.9184 10.3003 10.8984 10.2203 10.8451L8.15359 9.61178C7.64025 9.30511 7.26025 8.63178 7.26025 8.03845V5.30511C7.26025 5.03178 7.48692 4.80511 7.76025 4.80511C8.03359 4.80511 8.26025 5.03178 8.26025 5.30511V8.03845C8.26025 8.27845 8.46025 8.63178 8.66692 8.75178L10.7336 9.98511C10.9736 10.1251 11.0469 10.4318 10.9069 10.6718C10.8069 10.8318 10.6403 10.9184 10.4736 10.9184Z" fill="#292D32"/>
</svg>
