<svg width="16" height="16" viewBox="0 0 16 16" fill="none" xmlns="http://www.w3.org/2000/svg">
<g clip-path="url(#clip0_194_846)">
<path d="M10.7874 0H4.41648C1.98122 0 0 1.98122 0 4.41648V10.7874C0 13.2226 1.98122 15.2039 4.41648 15.2039H10.7874C13.2226 15.2039 15.2039 13.2226 15.2039 10.7874V4.41648C15.2039 1.98122 13.2226 0 10.7874 0ZM14.0161 10.7874C14.0161 12.5677 12.5677 14.0161 10.7874 14.0161H4.41648C2.63618 14.0161 1.1878 12.5677 1.1878 10.7874V4.41648C1.1878 2.63618 2.63618 1.1878 4.41648 1.1878H10.7874C12.5677 1.1878 14.0161 2.63618 14.0161 4.41648V10.7874Z" fill="#F8F0D4"/>
<path d="M7.60243 3.50391C5.34282 3.50391 3.50452 5.34221 3.50452 7.60182C3.50452 9.86144 5.34282 11.6997 7.60243 11.6997C9.86205 11.6997 11.7003 9.86144 11.7003 7.60182C11.7003 5.34221 9.86205 3.50391 7.60243 3.50391ZM7.60243 10.5119C5.9978 10.5119 4.69232 9.20645 4.69232 7.60182C4.69232 5.99719 5.9978 4.69171 7.60243 4.69171C9.20706 4.69171 10.5125 5.99719 10.5125 7.60182C10.5125 9.20645 9.20706 10.5119 7.60243 10.5119Z" fill="#F8F0D4"/>
<path d="M11.7588 4.03865C12.087 4.03865 12.353 3.77264 12.353 3.4445C12.353 3.11635 12.087 2.85034 11.7588 2.85034C11.4307 2.85034 11.1647 3.11635 11.1647 3.4445C11.1647 3.77264 11.4307 4.03865 11.7588 4.03865Z" fill="#F8F0D4"/>
</g>
<defs>
<clipPath id="clip0_194_846">
<rect width="15.2039" height="15.2039" fill="white"/>
</clipPath>
</defs>
</svg>
