<svg width="15" height="15" viewBox="0 0 15 15" fill="currentColor" xmlns="http://www.w3.org/2000/svg">
<g clip-path="url(#clip0_250_2273)">
<path d="M10.1807 0.944824H4.30247C2.05554 0.944824 0.227539 2.77283 0.227539 5.01976V10.898C0.227539 13.1449 2.05554 14.9729 4.30247 14.9729H10.1807C12.4276 14.9729 14.2556 13.1449 14.2556 10.898V5.01976C14.2556 2.77283 12.4276 0.944824 10.1807 0.944824ZM13.1597 10.898C13.1597 12.5406 11.8233 13.877 10.1807 13.877H4.30247C2.65985 13.877 1.32348 12.5406 1.32348 10.898V5.01976C1.32348 3.37713 2.65985 2.04077 4.30247 2.04077H10.1807C11.8233 2.04077 13.1597 3.37713 13.1597 5.01976V10.898Z"/>
<path d="M7.24243 4.1792C5.15756 4.1792 3.46143 5.87534 3.46143 7.9602C3.46143 10.0451 5.15756 11.7412 7.24243 11.7412C9.3273 11.7412 11.0234 10.0451 11.0234 7.9602C11.0234 5.87534 9.3273 4.1792 7.24243 4.1792ZM7.24243 10.6453C5.76189 10.6453 4.55737 9.44074 4.55737 7.9602C4.55737 6.47967 5.76189 5.27514 7.24243 5.27514C8.72297 5.27514 9.92749 6.47967 9.92749 7.9602C9.92749 9.44074 8.72297 10.6453 7.24243 10.6453Z" />
<path d="M11.0778 4.67079C11.3802 4.67079 11.6254 4.42564 11.6254 4.12324C11.6254 3.82083 11.3802 3.57568 11.0778 3.57568C10.7754 3.57568 10.5303 3.82083 10.5303 4.12324C10.5303 4.42564 10.7754 4.67079 11.0778 4.67079Z" />
</g>
<defs>
<clipPath id="clip0_250_2273">
<rect width="14.0281" height="14.0281" fill="none" transform="translate(0.227539 0.944824)"/>
</clipPath>
</defs>
</svg>
