<svg width="17" height="18" viewBox="0 0 17 18" fill="none" xmlns="http://www.w3.org/2000/svg">
<path d="M8.56864 10.2239C7.09577 10.2239 5.89258 9.0276 5.89258 7.54781C5.89258 6.06802 7.09577 4.87866 8.56864 4.87866C10.0415 4.87866 11.2447 6.07494 11.2447 7.55473C11.2447 9.03451 10.0415 10.2239 8.56864 10.2239ZM8.56864 5.9159C7.66971 5.9159 6.92981 6.64888 6.92981 7.55473C6.92981 8.46058 7.66279 9.19356 8.56864 9.19356C9.47449 9.19356 10.2075 8.46058 10.2075 7.55473C10.2075 6.64888 9.46758 5.9159 8.56864 5.9159Z" fill="#A87C4F"/>
<path d="M8.56832 16.1639C7.54492 16.1639 6.5146 15.7766 5.71247 15.0091C3.67258 13.0452 1.41832 9.91279 2.26885 6.18566C3.03641 2.80428 5.98907 1.28992 8.56832 1.28992C8.56832 1.28992 8.56832 1.28992 8.57524 1.28992C11.1545 1.28992 14.1072 2.80428 14.8747 6.19258C15.7183 9.9197 13.4641 13.0452 11.4242 15.0091C10.622 15.7766 9.59172 16.1639 8.56832 16.1639ZM8.56832 2.32715C6.55609 2.32715 3.96992 3.39896 3.28534 6.41385C2.53853 9.67077 4.58534 12.4782 6.43853 14.2553C7.63481 15.4101 9.50875 15.4101 10.705 14.2553C12.5513 12.4782 14.5981 9.67077 13.8651 6.41385C13.1736 3.39896 10.5806 2.32715 8.56832 2.32715Z" fill="#A87C4F"/>
</svg>
