<svg width="152" height="82" viewBox="0 0 152 82" fill="none" xmlns="http://www.w3.org/2000/svg">
<path d="M101.195 81.3268C98.1013 81.3268 95.0074 81.1979 91.7847 80.9401C79.0225 79.7799 64.7133 76.1704 49.244 70.4983C23.0751 60.7011 2.44932 47.6811 2.19149 47.5521L0 46.1341L1.28911 43.9426C12.8911 25.3794 27.8448 12.4883 45.8923 5.52714C61.2328 -0.273854 78.5068 -1.56296 95.7809 1.91763C124.657 7.84754 148.506 26.2818 151.342 44.9739C153.017 56.447 146.572 66.8888 133.036 74.1078C124.141 78.8775 113.442 81.3268 101.195 81.3268ZM7.34794 44.4583C13.2778 48.0678 30.5519 57.865 51.3066 65.5997C74.6395 74.3656 107.383 82.1003 130.587 69.5959C142.189 63.4082 147.603 55.1579 146.185 45.8763C145.025 38.1416 139.353 29.8913 130.071 22.6723C120.532 15.3244 108.027 9.78121 94.8785 7.07408C78.6357 3.72239 62.393 4.88259 47.9549 10.4258C31.4543 16.6135 17.9186 28.0866 7.34794 44.4583Z" fill="#F8F0D4"/>
<path d="M78.378 53.353C77.9912 53.6108 77.6045 53.9975 77.2178 54.2554C76.96 54.3843 76.8311 54.5132 76.5732 54.6421L75.9287 55.0288C75.0263 55.4156 74.1239 55.8023 73.3504 55.9312C72.9637 56.0601 72.4481 56.0601 72.0613 56.189C71.6746 56.189 71.159 56.189 70.7722 56.189C69.8698 56.189 69.0964 55.9312 68.3229 55.8023C68.0651 55.8023 67.8073 55.6734 67.5494 55.6734C66.2603 55.6734 65.1001 56.8336 65.2291 58.1227C65.2291 59.4118 66.3892 60.572 67.6784 60.4431C68.8386 60.4431 70.1277 60.3142 71.2879 59.9274C71.8035 59.7985 72.4481 59.5407 72.9637 59.4118C73.4794 59.154 73.995 58.8962 74.5106 58.6383C75.5419 58.1227 76.4443 57.3492 77.2178 56.7047L77.8623 56.189C77.9913 55.9312 78.2491 55.8023 78.378 55.5445C78.7647 55.1577 79.0225 54.771 79.4093 54.2554C79.5382 54.1264 79.5382 53.7397 79.4093 53.6108C78.8936 53.2241 78.6358 53.2241 78.378 53.353Z" fill="#F8F0D4"/>
<path d="M30.4229 36.3369C30.4229 36.3369 30.4228 36.5947 30.5518 36.8526C30.4228 36.5947 30.4229 36.4658 30.4229 36.3369Z" fill="#F8F0D4"/>
<path d="M59.2992 54.8999C57.7522 54.8999 56.592 56.189 56.592 57.607C56.592 59.154 57.7522 60.3142 59.2992 60.3142C60.8461 60.3142 62.0063 59.0251 62.0063 57.607C62.0063 56.0601 60.7172 54.8999 59.2992 54.8999Z" fill="#F8F0D4"/>
<path d="M77.8623 36.4657C78.378 37.6259 79.6671 38.2705 80.9562 37.8837C82.2453 37.497 83.0188 36.079 82.5031 34.7899C82.2453 34.0164 82.2453 33.3718 82.3742 32.9851C82.3742 32.7273 82.5031 32.5984 82.632 32.4695C82.7609 32.3406 82.8899 32.2116 83.0188 32.0827C83.4055 31.8249 84.0501 31.696 84.8235 31.8249C85.597 31.9538 86.3705 32.0827 87.1439 32.4695C88.6909 33.114 90.1089 34.4031 91.398 35.8212C92.5582 37.2392 93.5895 39.0439 94.3629 40.8487C95.1364 42.6534 95.5231 44.5871 95.3942 46.134C95.2653 46.9075 95.0075 47.681 94.6208 48.3255C94.3629 48.5834 94.1051 48.9701 93.8473 49.2279C93.5895 49.4857 93.2027 49.7435 92.816 49.8725C92.0425 50.2592 91.1402 50.517 90.2378 50.6459C89.3354 50.7748 88.3041 50.6459 87.2728 50.517C85.3392 50.1303 83.4055 49.3568 81.6007 48.0677C81.3429 47.8099 80.9562 47.8099 80.6984 48.0677C80.3116 48.3255 80.3116 48.8412 80.5695 49.099C82.1164 50.9038 84.179 52.3218 86.4994 53.0952C87.6596 53.482 88.9487 53.7398 90.2378 53.7398C91.5269 53.7398 92.816 53.6109 94.234 53.0952C95.5231 52.5796 96.8122 51.8061 97.7146 50.6459C98.617 49.4857 99.2616 48.0677 99.5194 46.7786C99.7772 45.3606 99.7772 44.0715 99.6483 42.6534C99.5194 41.3643 99.1327 40.0752 98.7459 38.915C97.9725 36.5946 96.8123 34.2742 95.2653 32.3406C93.7184 30.278 91.6558 28.4732 89.2065 27.313C87.9174 26.7974 86.6283 26.2817 85.0813 26.2817C84.3079 26.2817 83.5344 26.2817 82.7609 26.4106C81.9875 26.5396 81.214 26.7974 80.4406 27.1841C79.6671 27.5708 78.8936 28.2154 78.378 28.9889C77.8623 29.7623 77.3467 30.6647 77.2178 31.5671C77.0889 32.4695 77.0889 33.3718 77.2178 34.1453C77.3467 35.0477 77.6045 35.8212 77.8623 36.4657Z" fill="#F8F0D4"/>
<path d="M105.32 58.8962C106.094 59.4119 106.996 59.9275 107.898 60.3142C108.801 60.701 109.703 61.0877 110.735 61.3455C111.766 61.6034 112.797 61.7323 113.828 61.7323C114.344 61.7323 114.86 61.7323 115.375 61.6033C115.633 61.6033 115.891 61.4744 116.149 61.4744L116.922 61.2166C117.954 60.8299 118.985 60.4431 119.758 59.7986C120.661 59.154 121.434 58.3806 122.079 57.6071C123.368 55.9313 124.141 53.8687 124.657 51.935C125.044 50.0014 125.173 47.9388 125.044 46.0051C124.915 44.0714 124.528 42.1378 123.883 40.2041C123.755 39.6885 123.497 39.3017 123.368 38.7861C123.11 38.2705 122.981 37.8837 122.723 37.3681C122.208 36.4657 121.692 35.6922 121.176 34.9188C120.016 33.3718 118.856 31.8249 117.309 30.4069C116.536 29.7623 115.762 29.1178 114.86 28.4732C113.957 27.8287 112.926 27.313 111.766 27.0552C110.606 26.6685 109.188 26.6685 107.898 26.7974L107.383 26.6685C107.254 26.6685 106.996 26.7974 106.867 26.7974C106.48 26.9263 106.223 27.0552 105.836 27.1841L105.32 27.4419C105.191 27.5708 105.062 27.6997 104.934 27.6997C104.805 27.8287 104.676 27.9576 104.547 27.9576L104.16 28.3443C103.129 29.2467 102.484 30.4069 102.097 31.5671C101.711 32.7273 101.453 33.8875 101.453 34.9188C101.324 37.1103 101.84 39.3017 102.484 41.2354C102.871 42.1378 103.258 43.1691 103.902 44.0714C104.16 44.4582 104.418 44.9738 104.676 45.3606C104.934 45.7473 105.32 46.134 105.578 46.5208C108.156 49.6146 111.637 51.935 115.246 53.0952C116.02 53.353 116.922 53.0952 117.309 52.3218C117.825 51.4194 117.438 50.3881 116.664 50.0014C115.246 49.2279 113.828 48.1966 112.539 47.1653C111.25 46.134 110.219 44.9738 109.316 43.6847C108.414 42.3956 107.641 40.9776 107.254 39.5596C106.996 38.7861 106.867 38.1415 106.738 37.3681C106.609 36.5946 106.609 35.95 106.609 35.3055C106.609 34.6609 106.738 34.0164 106.996 33.5007C107.254 32.9851 107.512 32.4695 107.77 32.2116L107.898 32.0827C107.898 32.0827 108.027 32.0827 108.027 31.9538C108.027 31.9538 108.156 31.9538 108.156 31.8249H108.285C108.414 31.8249 108.414 31.696 108.543 31.696H108.672H108.801C109.188 31.5671 109.703 31.5671 110.348 31.696C110.863 31.8249 111.508 32.0827 112.153 32.4695C112.797 32.8562 113.313 33.2429 113.957 33.7586C115.118 34.7899 116.149 36.079 117.18 37.3681C117.696 38.0126 118.082 38.6572 118.469 39.4307C118.727 39.8174 118.856 40.0752 118.985 40.4619C119.114 40.8487 119.243 41.1065 119.5 41.4932C120.016 42.9112 120.403 44.5871 120.661 46.134C120.79 47.681 120.79 49.3568 120.532 50.9037C120.274 52.4507 119.758 53.8687 118.985 55.0289C118.211 56.1891 117.051 57.0915 115.762 57.6071L115.246 57.736C115.118 57.736 114.86 57.8649 114.731 57.8649C114.344 57.9938 114.086 57.9938 113.699 57.9938C112.926 58.1228 112.153 57.9938 111.379 57.8649C109.832 57.6071 108.285 57.0915 106.867 56.1891C105.449 55.4156 103.902 54.3843 102.484 53.353C102.097 53.0952 101.453 53.0952 101.066 53.482C100.679 53.8687 100.679 54.6422 101.195 55.0289C102.355 56.7047 103.644 57.8649 105.32 58.8962Z" fill="#F8F0D4"/>
<path d="M132.65 36.9816C132.263 35.5635 131.747 34.0166 131.232 32.7275C130.974 32.0829 130.587 31.3095 130.2 30.6649C130.071 30.2782 129.814 30.0204 129.556 29.6336C129.427 29.5047 129.298 29.2469 129.169 29.118L129.04 28.8602L128.911 28.7312L128.782 28.6023C127.751 27.3132 125.817 27.1843 124.399 28.0867C123.11 29.118 122.852 30.7938 123.884 32.0829C123.884 32.0829 123.884 32.0829 124.013 32.2119L124.141 32.3408C124.27 32.4697 124.27 32.5986 124.399 32.7275C124.528 32.9853 124.786 33.2431 124.915 33.501C125.302 34.0166 125.688 34.5322 125.946 35.0479C126.591 36.0792 127.235 37.2394 127.622 38.3996C128.524 40.72 129.169 43.2982 129.298 45.8764C129.298 46.521 129.298 47.1655 129.298 47.8101C129.298 48.4546 129.169 49.0992 129.169 49.7438C129.04 50.3883 128.911 51.0329 128.782 51.6774C128.653 51.9352 128.653 52.322 128.524 52.5798L128.396 53.0954C128.396 53.2243 128.267 53.3533 128.267 53.6111C127.493 56.1893 126.333 58.6386 124.786 60.959C124.657 61.2168 124.657 61.6036 124.915 61.7325C125.173 61.9903 125.688 61.8614 125.817 61.6036C127.622 59.4121 129.298 56.9628 130.587 54.3846C130.716 54.2556 130.716 53.9978 130.845 53.8689L131.103 53.3533C131.232 52.9665 131.361 52.7087 131.489 52.322C131.747 51.6774 132.005 50.904 132.134 50.2594C132.392 49.6148 132.521 48.8414 132.65 48.0679C132.779 47.2944 132.907 46.6499 132.907 45.8764C133.552 42.9115 133.294 39.8176 132.65 36.9816Z" fill="#F8F0D4"/>
<path d="M35.3217 37.3679C35.7084 35.0475 32.7435 31.8248 31.3254 32.7271C31.4544 32.5982 31.4543 32.4693 31.5833 32.3404C31.7122 32.0826 31.97 31.9537 32.2278 31.8248C33.1302 31.1802 34.0326 30.6646 35.1928 30.5356C34.2904 34.1452 36.8686 34.1452 38.8023 37.4968C40.736 40.7196 34.6771 40.7196 35.3217 37.3679Z" fill="#F8F0D4"/>
<path d="M77.3466 42.3957C77.0888 40.7199 76.5731 39.173 76.0575 37.626C75.4129 36.208 74.6395 34.79 73.866 33.5009C72.9636 32.2118 72.0613 30.9227 71.1589 29.7625C70.1276 28.6023 69.0963 27.4421 68.065 26.4108C67.9361 26.2819 67.9361 26.2819 67.8072 26.153C66.3892 25.1217 64.4555 25.3795 63.4242 26.6686C62.3929 28.0866 62.6508 30.0203 63.9399 31.0516C64.9712 31.825 66.0024 32.7274 66.9048 33.6298C67.8072 34.5322 68.7096 35.5635 69.3541 36.5947C70.1276 37.626 70.7721 38.6573 71.2878 39.8175C71.8034 40.9777 72.1902 42.009 72.448 43.1692C72.5769 43.6849 72.5769 44.2005 72.5769 44.7161C72.5769 45.2318 72.448 45.6185 72.3191 46.0053C72.1902 46.392 72.0613 46.5209 71.9323 46.6498C71.8034 46.7787 71.6745 46.9076 71.2878 46.9076C70.9011 46.9076 70.5143 46.9076 69.9987 46.7787C69.483 46.6498 68.9674 46.392 68.4518 46.1342C67.4205 45.6185 66.3892 44.8451 65.4868 43.9427C64.4555 43.0403 63.5531 42.1379 62.7797 41.1066C61.8773 40.0753 61.1038 39.0441 60.2014 37.8839L57.7521 34.5322C57.3654 34.0165 56.8498 33.372 56.463 32.8563L56.0763 32.3407C55.9474 32.2118 55.9474 32.2118 55.8185 32.0829L55.6896 31.9539L55.5606 31.825C55.5606 31.825 55.4317 31.6961 55.3028 31.5672C55.1739 31.5672 55.1739 31.4383 54.9161 31.3094C54.6583 31.3094 54.1426 30.7938 52.8535 31.4383C51.6933 32.3407 51.8222 32.9852 51.6933 33.2431C51.6933 33.5009 51.6933 33.6298 51.6933 33.7587C51.6933 34.0165 51.6933 34.0165 51.6933 34.1454C51.6933 34.2744 51.6933 34.2744 51.6933 34.2744C51.6933 34.5322 51.8222 34.5322 51.8222 34.6611L52.08 35.1767C52.3379 35.8213 52.5957 36.4658 52.8535 37.1104C53.1113 37.7549 53.3692 38.3995 53.4981 39.0441C53.8848 40.3332 54.2715 41.6223 54.4004 42.7825C54.6583 44.0716 54.6583 45.2318 54.5294 46.2631C54.4004 47.2944 54.0137 48.1967 53.3692 48.7124C52.8535 49.3569 51.9511 49.7437 50.7909 50.1304C50.2753 50.2593 49.6307 50.3882 49.1151 50.3882C48.4705 50.3882 47.9549 50.5171 47.3103 50.5171C44.861 50.5171 42.4117 49.7437 40.2202 48.5835C38.0287 47.4233 35.9662 45.8763 34.2903 43.9427C33.3879 43.0403 32.7434 42.009 32.0988 40.8488C31.4543 39.8175 30.9386 38.6573 30.6808 37.4971C30.6808 37.2393 30.5519 37.1104 30.5519 36.8526C30.5519 36.7237 30.5519 36.4658 30.423 36.3369C30.423 36.208 30.423 36.0791 30.423 36.0791C30.423 35.4346 30.423 34.79 30.5519 34.2744C30.6808 33.7587 30.9386 33.372 31.1965 32.9852C31.1965 32.8563 31.3254 32.8563 31.3254 32.7274C31.4543 32.5985 31.4543 32.4696 31.5832 32.3407C31.7121 32.0829 31.9699 31.954 32.2277 31.825C33.1301 31.1805 34.0325 30.6648 35.1927 30.5359C36.3529 30.407 37.5131 30.407 38.6733 30.7938C39.8335 31.1805 40.8648 31.6961 41.8961 32.4696C42.7984 33.2431 43.7008 34.1454 44.3454 35.1767C45.6345 37.3682 46.0212 39.9464 45.8923 42.5247C45.8923 43.1692 46.279 43.6849 46.9236 43.8138C47.5682 43.9427 48.2127 43.427 48.3416 42.7825C48.5994 41.2355 48.5994 39.6886 48.3416 38.2706C48.0838 36.7237 47.6971 35.1767 46.9236 33.7587C45.5056 30.9227 42.9274 28.6023 39.8335 27.571C38.2866 27.0553 36.6107 26.7975 34.9349 27.0553C33.259 27.3132 31.5832 27.9577 30.1652 28.989C29.7784 29.2468 29.5206 29.5046 29.1339 29.8914C28.8761 30.1492 28.4893 30.5359 28.2315 30.9227C27.7159 31.6961 27.3291 32.4696 26.9424 33.372C26.6846 34.2743 26.5557 35.1767 26.5557 35.9502C26.5557 36.8526 26.6846 37.626 26.8135 38.5284C27.2002 40.2043 27.7159 41.6223 28.4893 43.0403C29.2628 44.4583 30.1652 45.7474 31.0676 46.9076C33.0012 49.228 35.4505 51.2906 38.1577 52.8375C40.8648 54.3845 44.0876 55.2869 47.3103 55.4158C48.0838 55.4158 48.9862 55.4158 49.7597 55.2868C50.5331 55.1579 51.4355 55.029 52.209 54.9001C52.9824 54.6423 53.8848 54.3845 54.6583 53.8688C55.4317 53.4821 56.2052 52.8375 56.9787 52.0641C57.6232 51.2906 58.1389 50.5171 58.5256 49.6148C58.9123 48.7124 59.1702 47.81 59.2991 46.9076C59.428 45.8763 59.428 44.974 59.428 43.9427C60.4593 45.1029 61.4906 46.2631 62.6508 47.2944C63.811 48.3257 64.9711 49.3569 66.3892 50.1304C67.1626 50.5171 67.9361 50.9039 68.7096 51.1617C69.6119 51.4195 70.5143 51.6773 71.6745 51.6773C72.1902 51.6773 72.8347 51.5484 73.3504 51.4195C73.866 51.2906 74.5106 51.0328 75.0262 50.646C76.0575 49.8726 76.7021 48.8413 77.0888 47.9389C77.4755 46.9076 77.6044 46.0053 77.7333 45.1029C77.4755 44.0716 77.4755 43.1692 77.3466 42.3957Z" fill="#F8F0D4"/>
</svg>
