<svg width="20" height="21" viewBox="0 0 20 21" fill="none" xmlns="http://www.w3.org/2000/svg">
<path d="M14.5417 19.4591C13.6001 19.4591 12.6084 19.2341 11.5834 18.8008C10.5834 18.3758 9.57508 17.7925 8.59175 17.0841C7.61675 16.3675 6.67508 15.5675 5.78341 14.6925C4.90008 13.8008 4.10008 12.8591 3.39175 11.8925C2.67508 10.8925 2.10008 9.89248 1.69175 8.92581C1.25841 7.89248 1.04175 6.89248 1.04175 5.95081C1.04175 5.30081 1.15841 4.68415 1.38341 4.10915C1.61675 3.51748 1.99175 2.96748 2.50008 2.49248C3.14175 1.85915 3.87508 1.54248 4.65842 1.54248C4.98342 1.54248 5.31675 1.61748 5.60008 1.75081C5.92508 1.90081 6.20008 2.12581 6.40008 2.42581L8.33342 5.15081C8.50842 5.39248 8.64175 5.62581 8.73341 5.85915C8.84175 6.10915 8.90008 6.35915 8.90008 6.60081C8.90008 6.91748 8.80841 7.22581 8.63341 7.51748C8.50841 7.74248 8.31675 7.98415 8.07508 8.22581L7.50842 8.81748C7.51675 8.84248 7.52508 8.85915 7.53341 8.87581C7.63342 9.05081 7.83341 9.35081 8.21675 9.80081C8.62508 10.2675 9.00842 10.6925 9.39175 11.0841C9.88342 11.5675 10.2917 11.9508 10.6751 12.2675C11.1501 12.6675 11.4584 12.8675 11.6417 12.9591L11.6251 13.0008L12.2334 12.4008C12.4917 12.1425 12.7417 11.9508 12.9834 11.8258C13.4417 11.5425 14.0251 11.4925 14.6084 11.7341C14.8251 11.8258 15.0584 11.9508 15.3084 12.1258L18.0751 14.0925C18.3834 14.3008 18.6084 14.5675 18.7417 14.8841C18.8667 15.2008 18.9251 15.4925 18.9251 15.7841C18.9251 16.1841 18.8334 16.5841 18.6584 16.9591C18.4834 17.3341 18.2667 17.6591 17.9917 17.9591C17.5167 18.4841 17.0001 18.8591 16.4001 19.1008C15.8251 19.3341 15.2001 19.4591 14.5417 19.4591ZM4.65842 2.79248C4.20008 2.79248 3.77508 2.99248 3.36675 3.39248C2.98341 3.75081 2.71675 4.14248 2.55008 4.56748C2.37508 5.00081 2.29175 5.45915 2.29175 5.95081C2.29175 6.72581 2.47508 7.56748 2.84175 8.43415C3.21675 9.31748 3.74175 10.2341 4.40841 11.1508C5.07508 12.0675 5.83342 12.9591 6.66675 13.8008C7.50008 14.6258 8.40008 15.3925 9.32508 16.0675C10.2251 16.7258 11.1501 17.2591 12.0667 17.6425C13.4917 18.2508 14.8251 18.3925 15.9251 17.9341C16.3501 17.7591 16.7251 17.4925 17.0667 17.1091C17.2584 16.9008 17.4084 16.6758 17.5334 16.4091C17.6334 16.2008 17.6834 15.9841 17.6834 15.7675C17.6834 15.6341 17.6584 15.5008 17.5917 15.3508C17.5667 15.3008 17.5167 15.2091 17.3584 15.1008L14.5917 13.1341C14.4251 13.0175 14.2751 12.9341 14.1334 12.8758C13.9501 12.8008 13.8751 12.7258 13.5917 12.9008C13.4251 12.9841 13.2751 13.1091 13.1084 13.2758L12.4751 13.9008C12.1501 14.2175 11.6501 14.2925 11.2667 14.1508L11.0417 14.0508C10.7001 13.8675 10.3001 13.5841 9.85841 13.2091C9.45842 12.8675 9.02508 12.4675 8.50008 11.9508C8.09175 11.5341 7.68341 11.0925 7.25842 10.6008C6.86675 10.1425 6.58342 9.75081 6.40841 9.42581L6.30841 9.17581C6.25842 8.98415 6.24175 8.87581 6.24175 8.75915C6.24175 8.45915 6.35008 8.19248 6.55841 7.98415L7.18341 7.33415C7.35008 7.16748 7.47508 7.00915 7.55841 6.86748C7.62508 6.75915 7.65008 6.66748 7.65008 6.58415C7.65008 6.51748 7.62508 6.41748 7.58342 6.31748C7.52508 6.18415 7.43341 6.03415 7.31675 5.87581L5.38341 3.14248C5.30008 3.02581 5.20008 2.94248 5.07508 2.88415C4.94175 2.82581 4.80008 2.79248 4.65842 2.79248ZM11.6251 13.0091L11.4917 13.5758L11.7167 12.9925C11.6751 12.9841 11.6417 12.9925 11.6251 13.0091Z" fill="url(#paint0_linear_194_305)"/>
<path d="M15.4167 8.62419C15.075 8.62419 14.7917 8.34085 14.7917 7.99919C14.7917 7.69919 14.4917 7.07419 13.9917 6.54085C13.5 6.01585 12.9583 5.70752 12.5 5.70752C12.1583 5.70752 11.875 5.42419 11.875 5.08252C11.875 4.74085 12.1583 4.45752 12.5 4.45752C13.3083 4.45752 14.1583 4.89085 14.9 5.68252C15.5917 6.42419 16.0417 7.33252 16.0417 7.99919C16.0417 8.34085 15.7583 8.62419 15.4167 8.62419Z" fill="url(#paint1_linear_194_305)"/>
<path d="M18.3333 8.62581C17.9917 8.62581 17.7083 8.34248 17.7083 8.00081C17.7083 5.12581 15.375 2.79248 12.5 2.79248C12.1583 2.79248 11.875 2.50915 11.875 2.16748C11.875 1.82581 12.1583 1.54248 12.5 1.54248C16.0583 1.54248 18.9583 4.44248 18.9583 8.00081C18.9583 8.34248 18.675 8.62581 18.3333 8.62581Z" fill="url(#paint2_linear_194_305)"/>
<defs>
<linearGradient id="paint0_linear_194_305" x1="1.04389" y1="10.4919" x2="25.1805" y2="10.4919" gradientUnits="userSpaceOnUse">
<stop stop-color="#754C28"/>
<stop offset="1" stop-color="#3B2314"/>
</linearGradient>
<linearGradient id="paint1_linear_194_305" x1="11.8755" y1="6.53879" x2="17.4991" y2="6.53879" gradientUnits="userSpaceOnUse">
<stop stop-color="#754C28"/>
<stop offset="1" stop-color="#3B2314"/>
</linearGradient>
<linearGradient id="paint2_linear_194_305" x1="11.8758" y1="5.08064" x2="21.436" y2="5.08064" gradientUnits="userSpaceOnUse">
<stop stop-color="#754C28"/>
<stop offset="1" stop-color="#3B2314"/>
</linearGradient>
</defs>
</svg>
