<svg width="59" height="56" viewBox="0 0 59 56" fill="none" xmlns="http://www.w3.org/2000/svg">
<path d="M24.85 26.9835C24.393 26.0656 23.9884 25.1706 23.6207 24.2607C22.1655 20.659 21.5975 17.228 21.9103 14.0586C22.3751 9.2402 24.6078 6.13304 28.1016 5.29474C33.8065 3.96008 41.9341 8.83513 47.0682 16.6396C50.1203 21.3161 51.8027 26.546 51.9596 31.7307C52.1051 37.8462 50.18 43.7398 46.2277 49.3057L45.7516 49.9391L45.084 49.4591C45.0163 49.3983 38.8265 44.8428 32.9035 38.2832C29.4365 34.3918 26.6996 30.6023 24.85 26.9835Z" fill="url(#paint0_linear_39_6595)"/>
<path d="M19.0658 30.4221C18.428 29.6192 17.8461 28.828 17.2973 28.0144C15.1251 24.7939 13.8561 21.556 13.5031 18.3909C12.9559 13.5811 14.4938 10.0776 17.737 8.53123C23.0397 6.03963 32.0033 9.11833 38.6478 15.6848C42.6056 19.6246 45.3385 24.3904 46.57 29.4291C47.9837 35.3808 47.3261 41.5458 44.6174 47.8118L44.2834 48.5304L43.5305 48.1997C43.4517 48.1542 36.45 44.9853 29.2926 39.8005C25.0923 36.7149 21.6274 33.5772 19.0658 30.4221Z" fill="url(#paint1_linear_39_6595)"/>
<path d="M14.1222 34.9881C13.3313 34.3354 12.5977 33.6824 11.8917 33.0007C9.09738 30.3022 7.18299 27.3989 6.17963 24.3763C4.64434 19.7854 5.42022 16.0387 8.27107 13.8518C12.9398 10.3122 22.3476 11.46 30.2122 16.5015C34.9026 19.5323 38.5667 23.6257 40.8189 28.2984C43.4391 33.826 44.0776 39.9931 42.731 46.6853L42.5536 47.4576L41.7485 47.2907C41.6619 47.2626 34.1544 45.6186 26.0754 42.0353C21.3253 39.8904 17.2838 37.5416 14.1222 34.9881Z" fill="url(#paint2_linear_39_6595)"/>
<defs>
<linearGradient id="paint0_linear_39_6595" x1="39.5814" y1="-0.00259612" x2="44.9892" y2="50.5074" gradientUnits="userSpaceOnUse">
<stop stop-color="#754C28"/>
<stop offset="1" stop-color="#3B2314"/>
</linearGradient>
<linearGradient id="paint1_linear_39_6595" x1="96" y1="-2.96704" x2="43.6558" y2="49.2447" gradientUnits="userSpaceOnUse">
<stop stop-color="#754C28"/>
<stop offset="1" stop-color="#3B2314"/>
</linearGradient>
<linearGradient id="paint2_linear_39_6595" x1="-1.5" y1="22.033" x2="42.0882" y2="48.2869" gradientUnits="userSpaceOnUse">
<stop stop-color="#754C28"/>
<stop offset="1" stop-color="#3B2314"/>
</linearGradient>
</defs>
</svg>
