<svg width="60" height="56" viewBox="0 0 60 56" fill="none" xmlns="http://www.w3.org/2000/svg">
<path d="M25.2401 26.9835C24.7832 26.0656 24.3785 25.1706 24.0109 24.2607C22.5557 20.659 21.9877 17.228 22.3005 14.0586C22.7652 9.2402 24.9979 6.13304 28.4918 5.29474C34.1966 3.96008 42.3242 8.83513 47.4583 16.6396C50.5104 21.3161 52.1928 26.546 52.3498 31.7307C52.4952 37.8462 50.5701 43.7398 46.6179 49.3057L46.1417 49.9391L45.4741 49.4591C45.4064 49.3983 39.2166 44.8428 33.2936 38.2832C29.8266 34.3918 27.0898 30.6023 25.2401 26.9835Z" fill="#F8F0D4" fill-opacity="0.8"/>
<path d="M19.4559 30.4222C18.8181 29.6194 18.2362 28.8281 17.6874 28.0145C15.5152 24.794 14.2463 21.5562 13.8933 18.391C13.346 13.5812 14.8839 10.0777 18.1272 8.53135C23.4299 6.03975 32.3934 9.11845 39.038 15.6849C42.9957 19.6247 45.7287 24.3905 46.9601 29.4293C48.3739 35.3809 47.7162 41.5459 45.0076 47.812L44.6735 48.5305L43.9207 48.1998C43.8419 48.1544 36.8402 44.9854 29.6828 39.8006C25.4824 36.715 22.0175 33.5773 19.4559 30.4222Z" fill="#F8F0D4" fill-opacity="0.8"/>
<path d="M14.5123 34.9882C13.7215 34.3355 12.9878 33.6825 12.2819 33.0008C9.48752 30.3023 7.57312 27.399 6.56977 24.3764C5.03448 19.7855 5.81036 16.0389 8.66121 13.852C13.33 10.3123 22.7378 11.4601 30.6024 16.5016C35.2927 19.5324 38.9569 23.6259 41.209 28.2985C43.8293 33.8261 44.4678 39.9932 43.1211 46.6855L42.9437 47.4578L42.1386 47.2908C42.052 47.2627 34.5445 45.6188 26.4655 42.0354C21.7155 39.8905 17.6739 37.5418 14.5123 34.9882Z" fill="#F8F0D4" fill-opacity="0.8"/>
</svg>
