<svg width="17" height="17" viewBox="0 0 17 17" fill="none" xmlns="http://www.w3.org/2000/svg">
<path d="M10.4356 15.8164H6.70158C3.28562 15.8164 1.8335 14.3574 1.8335 10.9484V7.84357C1.8335 7.56006 2.0686 7.32495 2.35211 7.32495C2.63562 7.32495 2.87073 7.56006 2.87073 7.84357V10.9484C2.87073 13.7765 3.87339 14.7792 6.70158 14.7792H10.4287C13.2569 14.7792 14.2596 13.7765 14.2596 10.9484V7.84357C14.2596 7.56006 14.4947 7.32495 14.7782 7.32495C15.0617 7.32495 15.2968 7.56006 15.2968 7.84357V10.9484C15.3037 14.3574 13.8447 15.8164 10.4356 15.8164Z" fill="#A87C4F"/>
<path d="M8.56878 8.90159C7.80814 8.90159 7.11665 8.60425 6.62569 8.05797C6.13473 7.5117 5.90654 6.79946 5.98261 6.03883L6.4459 1.41968C6.47356 1.15691 6.69484 0.949463 6.96452 0.949463H10.1938C10.4635 0.949463 10.6847 1.14999 10.7124 1.41968L11.1757 6.03883C11.2518 6.79946 11.0236 7.5117 10.5326 8.05797C10.0209 8.60425 9.32941 8.90159 8.56878 8.90159ZM7.42782 1.9867L7.01292 6.14255C6.96452 6.60585 7.10282 7.04149 7.39324 7.35957C7.98101 8.00957 9.15654 8.00957 9.74431 7.35957C10.0347 7.03457 10.173 6.59893 10.1246 6.14255L9.70973 1.9867H7.42782Z" fill="#A87C4F"/>
<path d="M12.9322 8.90159C11.5284 8.90159 10.2768 7.76755 10.1316 6.37074L9.64759 1.5234C9.63376 1.37819 9.68216 1.23297 9.77897 1.12234C9.87578 1.0117 10.0141 0.949463 10.1662 0.949463H12.2752C14.3082 0.949463 15.2556 1.79999 15.5391 3.88829L15.7327 5.81063C15.8157 6.62659 15.5667 7.40106 15.0343 7.98883C14.5018 8.57659 13.755 8.90159 12.9322 8.90159ZM10.7401 1.9867L11.1689 6.26702C11.2588 7.13138 12.0609 7.86436 12.9322 7.86436C13.4577 7.86436 13.9279 7.66383 14.2667 7.29734C14.5987 6.93085 14.7508 6.43989 14.7024 5.91436L14.5088 4.01276C14.2944 2.44999 13.7896 1.9867 12.2752 1.9867H10.7401Z" fill="#A87C4F"/>
<path d="M4.17092 8.90159C3.34805 8.90159 2.60124 8.57659 2.06879 7.98883C1.53635 7.40106 1.28741 6.62659 1.37039 5.81063L1.55709 3.90904C1.84752 1.8 2.79486 0.949463 4.82784 0.949463H6.93688C7.08209 0.949463 7.22039 1.0117 7.32411 1.12234C7.42784 1.23297 7.46933 1.37819 7.4555 1.5234L6.97145 6.37074C6.82624 7.76755 5.57465 8.90159 4.17092 8.90159ZM4.82784 1.9867C3.31348 1.9867 2.80869 2.44308 2.58741 4.02659L2.40071 5.91436C2.34539 6.43989 2.50443 6.93085 2.83635 7.29734C3.16826 7.66383 3.63848 7.86436 4.17092 7.86436C5.0422 7.86436 5.85124 7.13138 5.93422 6.26702L6.36294 1.9867H4.82784Z" fill="#A87C4F"/>
<path d="M10.2976 15.8165H6.84015C6.55664 15.8165 6.32153 15.5814 6.32153 15.2978V13.5691C6.32153 12.117 7.11675 11.3218 8.56887 11.3218C10.021 11.3218 10.8162 12.117 10.8162 13.5691V15.2978C10.8162 15.5814 10.5811 15.8165 10.2976 15.8165ZM7.35877 14.7792H9.77898V13.5691C9.77898 12.6978 9.44015 12.359 8.56887 12.359C7.6976 12.359 7.35877 12.6978 7.35877 13.5691V14.7792Z" fill="#A87C4F"/>
</svg>
