<svg width="17" height="16" viewBox="0 0 17 16" fill="none" xmlns="http://www.w3.org/2000/svg">
<path d="M14.5876 13.2972C15.2279 13.1968 16.5526 12.9652 16.8061 12.3817C16.9339 12.0813 16.7513 11.837 16.5182 11.7997V11.799C14.266 11.4284 13.2509 9.1214 13.2094 9.02311C12.5853 7.90403 14.2794 8.09218 14.9456 7.40978C15.5957 6.74072 14.5532 6.0162 13.901 6.3237C13.6335 6.44937 13.2326 6.5954 12.9658 6.47324C13.029 5.41383 13.2038 3.65729 12.7749 2.69828C11.3321 -0.533288 7.07768 -0.64983 5.10069 1.22607C3.54282 2.70319 3.73378 4.22174 3.87981 6.47324C3.39539 6.68456 2.91659 6.26473 2.56767 6.26473C2.20119 6.26473 1.77505 6.50272 1.70624 6.86147C1.61919 7.33255 2.13099 7.63584 2.57399 7.81066C3.3287 8.10692 4.0462 8.19468 3.64813 9.00345C3.64462 9.00977 3.64181 9.01609 3.63971 9.0224C3.07596 10.31 1.84525 11.5477 0.330213 11.7976C0.085897 11.8377 -0.0811925 12.0953 0.0409653 12.3796V12.381C0.2916 12.9652 1.62902 13.1989 2.26017 13.2972C2.45534 13.6623 2.3058 14.3833 2.91027 14.3833C3.14546 14.3833 3.60039 14.2296 4.18099 14.2296C5.02697 14.2296 5.31552 14.4142 5.9937 14.893C6.69014 15.3851 7.45539 15.8661 8.40667 15.7966C9.39727 15.8583 10.133 15.4027 10.8547 14.8944L10.8554 14.893C11.5589 14.3981 12.0616 14.0323 13.5513 14.325C14.6536 14.5385 14.332 13.7922 14.5876 13.2972Z" fill="url(#paint0_linear_108_2417)"/>
<defs>
<linearGradient id="paint0_linear_108_2417" x1="0.00201873" y1="7.89382" x2="22.7415" y2="7.89382" gradientUnits="userSpaceOnUse">
<stop stop-color="#754C28"/>
<stop offset="1" stop-color="#3B2314"/>
</linearGradient>
</defs>
</svg>
