<svg width="15" height="13" viewBox="0 0 15 13" fill="currentColor" xmlns="http://www.w3.org/2000/svg">
<path d="M13.4817 3.65787C14.0522 3.25281 14.5321 2.74721 14.9231 2.16505V2.16446C14.4011 2.393 13.8459 2.54497 13.266 2.61862C13.8622 2.26266 14.3175 1.70329 14.5315 1.02936C13.9756 1.36077 13.3619 1.59457 12.7078 1.7255C12.18 1.16321 11.4278 0.81543 10.6071 0.81543C9.01493 0.81543 7.73312 2.10777 7.73312 3.69177C7.73312 3.91972 7.75241 4.13891 7.79975 4.34758C5.40914 4.23068 3.29324 3.08505 1.87172 1.33914C1.62389 1.76992 1.47777 2.26266 1.47777 2.7928C1.47777 3.7888 1.99038 4.6714 2.75549 5.18284C2.29315 5.17407 1.84016 5.03963 1.45614 4.82863V4.86019C1.45614 6.25774 2.45272 7.41856 3.76025 7.68626C3.52587 7.75056 3.27102 7.78095 3.00624 7.78095C2.82213 7.78095 2.63625 7.77043 2.46207 7.73185C2.8344 8.87046 3.89235 9.70806 5.14903 9.73553C4.17057 10.5006 2.92792 10.9618 1.58298 10.9618C1.34742 10.9618 1.12122 10.9513 0.89502 10.9227C2.16924 11.7439 3.67842 12.2132 5.30685 12.2132C10.3821 12.2132 13.6898 7.9791 13.4817 3.65787Z" />
</svg>
